<svg xmlns="http://www.w3.org/2000/svg" width="1200" height="760" viewBox="0 0 1200 760" role="img" aria-label="Géolocalisation">
<defs>
  <linearGradient id="bg" x1="0" y1="0" x2="1" y2="1">
    <stop stop-color="#08111f"/>
    <stop offset=".55" stop-color="#0d1a2d"/>
    <stop offset="1" stop-color="#101f34"/>
  </linearGradient>
  <radialGradient id="glow" cx="78%" cy="22%" r="70%">
    <stop stop-color="#56bdf7" stop-opacity=".25"/>
    <stop offset="1" stop-color="#56bdf7" stop-opacity="0"/>
  </radialGradient>
</defs>
<rect width="1200" height="760" fill="url(#bg)"/>
<rect width="1200" height="760" fill="url(#glow)"/>
<g transform="translate(725 210) scale(1.68)" fill="none" stroke="#56bdf7" stroke-width="8" stroke-linecap="round" stroke-linejoin="round" opacity=".88"><path d="M150 58c-36 0-64 28-64 64 0 54 64 118 64 118s64-64 64-118c0-36-28-64-64-64z"/><circle cx="150" cy="122" r="20"/><path d="M48 254c50-30 98-30 154 0 42 22 76 22 112 0"/></g>
<g font-family="Inter, Segoe UI, Arial, sans-serif">
  <text x="74" y="500" fill="#f7f9fc" font-size="48" font-weight="760">Géolocalisation</text>
  <text x="76" y="555" fill="#aeb8c8" font-size="24">Tests indoor/outdoor</text>
  <text x="76" y="615" fill="#56bdf7" font-size="17" font-weight="700">Image temporaire — remplaçable par une photo réelle</text>
</g>
<path d="M0 670 C180 610 320 720 520 662 S840 600 1200 654" fill="none" stroke="#56bdf7" stroke-opacity=".18" stroke-width="3"/>
</svg>